<svg width="50" height="50" viewBox="0 0 50 50" fill="none" xmlns="http://www.w3.org/2000/svg">
<circle cx="25" cy="25" r="25" fill="#0059DF"/>
<path d="M16.9038 37V12.1172H23.9277C26.0924 12.1172 28.0065 12.5957 29.6699 13.5527C31.3333 14.5098 32.6151 15.8713 33.5151 17.6372C34.4266 19.4032 34.888 21.4312 34.8994 23.7212V25.3105C34.8994 27.6576 34.4437 29.714 33.5322 31.48C32.6322 33.2459 31.339 34.6017 29.6528 35.5474C27.978 36.493 26.0241 36.9772 23.791 37H16.9038ZM20.1851 14.8174V34.3169H23.6372C26.1665 34.3169 28.1318 33.5308 29.5332 31.9585C30.946 30.3862 31.6523 28.1475 31.6523 25.2422V23.7896C31.6523 20.964 30.9858 18.7708 29.6528 17.21C28.3312 15.6377 26.4513 14.8402 24.0132 14.8174H20.1851Z" fill="white"/>
</svg>
