<svg width="50" height="50" viewBox="0 0 50 50" fill="none" xmlns="http://www.w3.org/2000/svg">
<circle cx="25" cy="25" r="25" fill="#0059DF"/>
<path d="M26.2305 26.9341H20.3857V37H17.0874V12.1172H25.3247C28.1274 12.1172 30.2808 12.7552 31.7847 14.0312C33.3 15.3073 34.0576 17.1644 34.0576 19.6025C34.0576 21.152 33.6361 22.5021 32.793 23.6528C31.9613 24.8035 30.7992 25.6637 29.3066 26.2334L35.1514 36.7949V37H31.6309L26.2305 26.9341ZM20.3857 24.251H25.4272C27.0565 24.251 28.3496 23.8294 29.3066 22.9863C30.2751 22.1432 30.7593 21.0153 30.7593 19.6025C30.7593 18.0645 30.2979 16.8853 29.375 16.0649C28.4635 15.2446 27.1419 14.8288 25.4102 14.8174H20.3857V24.251Z" fill="white"/>
</svg>
