<svg width="50" height="50" viewBox="0 0 50 50" fill="none" xmlns="http://www.w3.org/2000/svg">
<circle cx="25" cy="25" r="25" fill="#0059DF"/>
<path d="M25.3291 25.9087C22.515 25.0998 20.4642 24.1086 19.1768 22.9351C17.9007 21.7502 17.2627 20.2918 17.2627 18.5601C17.2627 16.6004 18.0431 14.9826 19.604 13.7065C21.1763 12.4191 23.2157 11.7754 25.7222 11.7754C27.4312 11.7754 28.9521 12.1058 30.2852 12.7666C31.6296 13.4274 32.6663 14.3389 33.3955 15.501C34.1361 16.6631 34.5063 17.9334 34.5063 19.312H31.208C31.208 17.8081 30.7295 16.6289 29.7725 15.7744C28.8154 14.9085 27.4653 14.4756 25.7222 14.4756C24.1043 14.4756 22.8397 14.8345 21.9282 15.5522C21.0282 16.2586 20.5781 17.2441 20.5781 18.5088C20.5781 19.5228 21.0054 20.383 21.8599 21.0894C22.7257 21.7843 24.1898 22.4224 26.252 23.0034C28.3255 23.5845 29.9434 24.2282 31.1055 24.9346C32.279 25.6296 33.1449 26.4442 33.7031 27.3784C34.2728 28.3127 34.5576 29.4121 34.5576 30.6768C34.5576 32.6934 33.7715 34.3112 32.1992 35.5303C30.627 36.738 28.5249 37.3418 25.8931 37.3418C24.1841 37.3418 22.589 37.0171 21.1079 36.3677C19.6268 35.7069 18.4818 34.8068 17.6729 33.6675C16.8753 32.5282 16.4766 31.235 16.4766 29.7881H19.7749C19.7749 31.292 20.3275 32.4826 21.4326 33.3599C22.5492 34.2257 24.036 34.6587 25.8931 34.6587C27.6248 34.6587 28.9521 34.3055 29.875 33.5991C30.7979 32.8927 31.2593 31.93 31.2593 30.7109C31.2593 29.4919 30.832 28.5519 29.9775 27.8911C29.123 27.2189 27.5736 26.5581 25.3291 25.9087Z" fill="white"/>
</svg>
